#!OML:ASF I:\Actors\actors\Patient Classification 2\Patient 1\Session 1\actor1.ASF
:FULLY-SPECIFIED
:DEGREES
723
root -0.633932 18.5109 6.0187 -5.54947 -8.03596 -2.87873
lowerback 13.6386 -3.32239 -0.919967
upperback 1.54814 -4.35542 3.15507
thorax -5.67655 -2.09428 4.64423
lowerneck -12.5086 5.13738 7.54817
upperneck 13.1416 4.63798 5.46183
head 6.13174 3.0417 0.938597
rclavicle -6.24929e-014 3.65764e-014
rhumerus -64.3221 -21.0519 -59.9592
rradius 55.1046
rwrist -5.62519
rhand -7.24802 -31.5673
rfingers 7.12502
rthumb 18.6323 -60.6949
lclavicle -6.24929e-014 3.65764e-014
lhumerus -29.3014 -20.4227 107.535
lradius 53.3014
lwrist 17.6738
lhand -1.88272 -24.2129
lfingers 7.12502
lthumb 23.7859 4.33479
rfemur 14.891 10.4445 17.9672
rtibia -3.81667e-014
rfoot -17.9459 -13.1487
rtoes -17.7473
lfemur 2.91622 1.07771 -11.4425
ltibia 24.2664
lfoot -23.1252 8.72659
ltoes -56.7935
724
root -0.681854 18.5062 6.03735 -5.78506 -6.46776 -2.74262
lowerback 13.4692 -3.25073 -1.01106
upperback 1.60532 -4.27953 3.07168
thorax -5.52838 -2.05933 4.57738
lowerneck -13.1565 5.08893 7.48473
upperneck 12.9597 4.59224 5.07614
head 6.18743 2.98911 0.836592
rclavicle 1.38901e-014 -1.39149e-014
rhumerus -63.6736 -21.4037 -60.7454
rradius 55.4991
rwrist -7.44398
rhand -7.35903 -32.073
rfingers 7.12502
rthumb 18.5255 -61.2109
lclavicle 1.38901e-014 -1.39149e-014
lhumerus -30.2699 -19.5298 107.227
lradius 54.0049
lwrist 18.836
lhand -4.73924 -25.9597
lfingers 7.12502
lthumb 21.0439 2.91852
rfemur 15.4315 8.89382 17.8038
rtibia 4.77083e-015
rfoot -18.0176 -12.957
rtoes -17.1509
lfemur 2.8163 0.39295 -11.4824
ltibia 24.3077
lfoot -22.7552 8.33114
ltoes -57.3087
725
root -0.731702 18.503 6.05176 -5.99361 -4.90424 -2.63279
lowerback 13.3076 -3.20239 -1.07246
upperback 1.65977 -4.22948 2.98998
thorax -5.38739 -2.03748 4.50139
lowerneck -13.7282 4.94665 7.30676
upperneck 12.8184 4.43925 4.75472
head 6.2371 2.8838 0.7603
rclavicle -1.12065e-014 -3.97569e-016
rhumerus -62.6988 -21.5085 -61.7584
rradius 56.1858
rwrist -9.41848
rhand -7.3969 -32.5077
rfingers 7.12502
rthumb 18.4891 -61.6491
lclavicle -1.12065e-014 -3.97569e-016
lhumerus -30.9798 -18.4919 106.359
lradius 55.754
lwrist 21.3607
lhand -3.7903 -23.2623
lfingers 7.12502
lthumb 21.9553 5.51174
rfemur 15.9272 7.34856 17.6348
rtibia 7.95139e-015
rfoot -18.129 -12.692
rtoes -16.4697
lfemur 2.64618 -0.373697 -11.5171
ltibia 24.3925
lfoot -22.4613 7.94912
ltoes -57.6063
726
root -0.786622 18.4993 6.06772 -6.20603 -3.41032 -2.57815
lowerback 13.1224 -3.14291 -1.07162
upperback 1.71498 -4.15557 2.90743
thorax -5.23911 -2.00524 4.38426
lowerneck -14.2068 4.65671 6.97643
upperneck 12.7361 4.10737 4.55927
head 6.28163 2.69531 0.727915
rclavicle -5.32743e-014 2.06736e-014
rhumerus -61.4594 -21.3743 -62.9373
rradius 57.1561
rwrist -11.6465
rhand -7.61997 -32.8939
rfingers 7.12502
rthumb 18.2745 -62.0555
lclavicle -5.32743e-014 2.06736e-014
lhumerus -31.6882 -17.4954 105.158
lradius 57.897
lwrist 23.7263
lhand -5.06468 -22.8253
lfingers 7.12502
lthumb 20.7313 6.08737
rfemur 16.4508 5.86267 17.541
rtibia -2.22639e-014
rfoot -18.2024 -12.4328
rtoes -16.426
lfemur 2.47598 -1.11549 -11.4689
ltibia 24.525
lfoot -22.2488 7.54284
ltoes -57.7999
727
root -0.839285 18.4942 6.08211 -6.34274 -2.30298 -2.54946
lowerback 12.9111 -2.97422 -0.951531
upperback 1.7222 -3.92127 2.79058
thorax -5.14991 -1.89429 4.13894
lowerneck -14.5381 4.24699 6.63741
upperneck 12.678 3.63026 4.37129
head 6.30807 2.43588 0.68072
rclavicle -5.71506e-016 -1.19271e-015
rhumerus -60.0511 -21.0229 -64.2175
rradius 58.43
rwrist -14.057
rhand -7.93424 -33.046
rfingers 7.12502
rthumb 17.9721 -62.2356
lclavicle -5.71506e-016 -1.19271e-015
lhumerus -32.4295 -16.7922 103.699
lradius 60.4847
lwrist 26.2301
lhand -6.34062 -22.2055
lfingers 7.12502
lthumb 19.5049 6.83617
rfemur 16.8286 4.75386 17.4969
rtibia -3.02153e-014
rfoot -18.2747 -12.154
rtoes -16.2967
lfemur 2.30076 -1.69122 -11.412
ltibia 24.6567
lfoot -22.071 7.44613
ltoes -58.2523
728
root -0.87355 18.4927 6.08536 -6.31305 -1.8766 -2.42148
lowerback 12.9084 -2.62617 -0.566788
upperback 1.49695 -3.41418 2.54508
thorax -5.46195 -1.64471 3.58909
lowerneck -14.6465 3.76051 6.37685
upperneck 12.7586 3.0556 4.13452
head 6.34397 2.13113 0.592441
rclavicle -2.97183e-014 -2.3059e-014
rhumerus -58.7921 -20.3779 -65.4451
rradius 60.1243
rwrist -16.4824
rhand -8.13553 -33.2806
rfingers 7.12502
rthumb 17.7784 -62.4879
lclavicle -2.97183e-014 -2.3059e-014
lhumerus -33.3162 -16.6785 102.038
lradius 63.4642
lwrist 28.9996
lhand -8.18787 -21.6849
lfingers 7.12502
lthumb 17.7281 7.52692
rfemur 16.8331 4.33962 17.337
rtibia -6.36111e-014
rfoot -18.2562 -11.8975
rtoes -15.6248
lfemur 2.07682 -2.14169 -11.5902
ltibia 24.7725
lfoot -22.0752 7.87906
ltoes -58.6409
729
root -0.923964 18.4898 6.09849 -6.32994 -1.28089 -2.29963
lowerback 12.9098 -2.32356 -0.316093
upperback 1.2076 -2.98639 2.29369
thorax -5.8219 -1.43345 3.12135
lowerneck -14.7553 3.19201 5.96219
upperneck 13.179 2.34926 4.13684
head 6.48401 1.78535 0.596001
rclavicle 2.55314e-014 -2.5842e-014
rhumerus -57.6944 -19.5592 -66.522
rradius 62.3067
rwrist -18.9334
rhand -8.47966 -33.8081
rfingers 7.12502
rthumb 17.4473 -63.0451
lclavicle 2.55314e-014 -2.5842e-014
lhumerus -34.1586 -16.9979 100.069
lradius 66.6673
lwrist 31.8701
lhand -9.29505 -21.3791
lfingers 7.12502
lthumb 16.6624 7.92576
rfemur 17.0037 3.73914 17.2564
rtibia 3.02153e-014
rfoot -18.3299 -11.6247
rtoes -14.9577
lfemur 1.94674 -2.49958 -11.6213
ltibia 24.8623
lfoot -22.0705 7.86015
ltoes -58.7274
